<svg width="56" height="57" viewBox="0 0 56 57" fill="none" xmlns="http://www.w3.org/2000/svg">
<path d="M41.1101 13.6458C39.338 12.0917 37.2419 10.9519 34.9742 10.3092C32.7065 9.66658 30.324 9.53723 28 9.93058C25.676 9.53723 23.2936 9.66658 21.0258 10.3092C18.7581 10.9519 16.662 12.0917 14.8899 13.6458C11.4109 16.9341 8.82527 22.6968 9.85252 27.0421C10.4981 27.2282 11.1615 27.3455 11.8318 27.3921C11.3221 29.2305 11.206 31.1558 11.4912 33.0422C11.7763 34.9285 12.4562 36.7335 13.4864 38.3392C14.2975 38.2292 15.096 38.0408 15.8708 37.7766C16.4831 41.1875 18.1886 44.3067 20.7296 46.6631C21.263 46.3164 21.7704 45.9312 22.2478 45.5107C23.0961 48.7897 25.1503 51.6279 28 53.4583C30.8501 51.6275 32.9043 48.7886 33.7523 45.509L33.761 45.4888C34.2458 45.9169 34.762 46.308 35.3054 46.6587C37.8361 44.3001 39.5321 41.1833 40.138 37.7775C40.9101 38.04 41.7056 38.2275 42.5136 38.3375C43.5439 36.7318 44.2238 34.9268 44.5089 33.0404C44.794 31.1541 44.6779 29.2288 44.1683 27.3903C44.8385 27.3438 45.502 27.2265 46.1475 27.0403C47.1748 22.6977 44.5891 16.935 41.1101 13.6458Z" fill="#FFBD4A"/>
<path d="M28 54.3333C27.8353 54.3334 27.674 54.287 27.5345 54.1994C24.4919 52.2564 22.3001 49.2312 21.4016 45.7347C21.3416 45.5104 21.3732 45.2715 21.4894 45.0704C21.6056 44.8694 21.7968 44.7228 22.0211 44.6628C22.2454 44.6028 22.4843 44.6344 22.6854 44.7506C22.8864 44.8667 23.033 45.058 23.093 45.2823C23.8328 48.164 25.5718 50.6893 28 52.4083C29.4839 51.3633 30.7185 50.0032 31.6155 48.4253C31.6726 48.3256 31.7488 48.2381 31.8397 48.1678C31.9307 48.0975 32.0345 48.0458 32.1454 48.0156C32.2564 47.9855 32.3721 47.9775 32.4861 47.9921C32.6001 48.0067 32.7101 48.0436 32.8099 48.1007C32.9096 48.1578 32.9971 48.234 33.0674 48.3249C33.1377 48.4159 33.1894 48.5197 33.2195 48.6306C33.2497 48.7416 33.2577 48.8573 33.2431 48.9713C33.2285 49.0853 33.1916 49.1953 33.1345 49.2951C32.002 51.2854 30.3989 52.9678 28.4655 54.1951C28.3265 54.2841 28.1651 54.3321 28 54.3333Z" fill="#858585"/>
<path d="M20.7296 47.5363C20.5179 47.5363 20.3133 47.4595 20.1539 47.3202C17.4685 44.837 15.6644 41.5473 15.0141 37.9481C14.9677 37.7206 15.0136 37.4841 15.1415 37.2905C15.2695 37.0968 15.4692 36.962 15.6966 36.9156C15.9241 36.8692 16.1606 36.915 16.3542 37.043C16.5479 37.171 16.6827 37.3706 16.7291 37.5981C17.2752 40.5905 18.6953 43.3541 20.8101 45.5404C21.0989 45.3287 21.3868 45.0968 21.6711 44.8483C23.1968 43.4757 24.4316 41.811 25.3024 39.9527C25.3476 39.8424 25.4149 39.7426 25.5001 39.6592C25.5854 39.5759 25.6867 39.5109 25.798 39.4681C25.9092 39.4253 26.028 39.4058 26.1471 39.4106C26.2662 39.4154 26.3831 39.4444 26.4905 39.496C26.598 39.5476 26.6938 39.6206 26.772 39.7105C26.8502 39.8004 26.9093 39.9054 26.9455 40.0189C26.9817 40.1325 26.9944 40.2522 26.9827 40.3708C26.9709 40.4894 26.9351 40.6044 26.8774 40.7087C25.9042 42.7803 24.5251 44.6355 22.8218 46.1643C22.3123 46.6135 21.7704 47.0244 21.2004 47.3937C21.0603 47.4853 20.897 47.5348 20.7296 47.5363Z" fill="#858585"/>
<path d="M13.4864 39.2125C13.3416 39.2125 13.1991 39.1767 13.0716 39.1081C12.9441 39.0395 12.8356 38.9404 12.7558 38.8196C11.656 37.1115 10.9297 35.1903 10.6247 33.1818C10.3196 31.1733 10.4426 29.123 10.9857 27.1655C11.0453 26.9412 11.1916 26.7498 11.3924 26.6333C11.5931 26.5169 11.8319 26.485 12.0562 26.5446C12.2805 26.6043 12.4719 26.7506 12.5883 26.9514C12.7048 27.1521 12.7367 27.3909 12.677 27.6152C12.2251 29.2441 12.1022 30.9468 12.3157 32.6237C12.5292 34.3007 13.0747 35.9182 13.9204 37.382C14.4867 37.2766 15.0447 37.1304 15.5899 36.9445C18.4383 35.9515 20.8517 33.997 22.4149 31.4171C22.471 31.3115 22.5482 31.2186 22.6416 31.144C22.735 31.0694 22.8427 31.0147 22.9581 30.9834C23.0735 30.952 23.194 30.9446 23.3124 30.9617C23.4307 30.9787 23.5443 31.0199 23.6461 31.0825C23.7479 31.1452 23.8358 31.228 23.9044 31.326C23.9729 31.4239 24.0207 31.5348 24.0447 31.652C24.0687 31.7691 24.0685 31.8899 24.044 32.0069C24.0195 32.1239 23.9713 32.2347 23.9024 32.3323C22.1255 35.2605 19.383 37.4774 16.1473 38.6008C15.3189 38.8837 14.4649 39.0853 13.5975 39.2028C13.5607 39.2084 13.5236 39.2116 13.4864 39.2125Z" fill="#858585"/>
<path d="M35.3053 47.5337C35.1379 47.5338 34.9739 47.4858 34.8328 47.3954C34.2522 47.0201 33.7004 46.6022 33.1817 46.1451C30.5495 43.7311 28.6842 40.5972 27.8171 37.1326C27.7838 37.0204 27.7734 36.9027 27.7864 36.7865C27.7995 36.6702 27.8357 36.5577 27.8929 36.4557C27.9501 36.3537 28.0273 36.2642 28.1197 36.1925C28.2121 36.1208 28.318 36.0683 28.431 36.0383C28.5441 36.0082 28.662 36.0011 28.7779 36.0174C28.8937 36.0337 29.0051 36.073 29.1055 36.1331C29.2058 36.1932 29.2931 36.2728 29.3622 36.3672C29.4313 36.4617 29.4807 36.569 29.5076 36.6828C30.2858 39.8117 31.9645 42.6437 34.3358 44.8282C34.629 45.0854 34.9256 45.3234 35.2213 45.5404C37.327 43.3527 38.7389 40.5913 39.2796 37.6033C39.326 37.3758 39.4609 37.176 39.6546 37.0479C39.8483 36.9198 40.085 36.874 40.3125 36.9204C40.5401 36.9668 40.7399 37.1017 40.8679 37.2954C40.996 37.4891 41.0419 37.7258 40.9955 37.9533C40.3504 41.5456 38.5562 44.8312 35.8828 47.3158C35.7232 47.4562 35.5179 47.5336 35.3053 47.5337Z" fill="#858585"/>
<path d="M42.5136 39.2124C42.4747 39.2124 42.4358 39.2098 42.3972 39.2046C41.5341 39.0871 40.6843 38.8863 39.8597 38.6052C36.6203 37.4831 33.8743 35.265 32.0959 32.3341C32.0269 32.2364 31.9787 32.1256 31.9543 32.0086C31.9298 31.8916 31.9296 31.7708 31.9536 31.6537C31.9776 31.5366 32.0254 31.4256 32.0939 31.3277C32.1625 31.2297 32.2504 31.1469 32.3522 31.0842C32.454 31.0216 32.5676 30.9805 32.6859 30.9634C32.8042 30.9464 32.9248 30.9537 33.0402 30.9851C33.1556 31.0164 33.2633 31.0711 33.3567 31.1457C33.4501 31.2203 33.5273 31.3132 33.5834 31.4188C35.1486 34.0015 37.5661 35.957 40.4189 36.9479C40.9616 37.1343 41.5172 37.2805 42.0814 37.3854C42.9271 35.9217 43.4726 34.3041 43.6861 32.6272C43.8995 30.9503 43.7767 29.2476 43.3247 27.6187C43.2952 27.5076 43.2878 27.3918 43.3031 27.2779C43.3183 27.164 43.3558 27.0542 43.4134 26.9548C43.4711 26.8554 43.5477 26.7683 43.639 26.6986C43.7304 26.6288 43.8345 26.5777 43.9456 26.5481C44.0566 26.5186 44.1724 26.5112 44.2863 26.5264C44.4002 26.5417 44.51 26.5792 44.6094 26.6368C44.7088 26.6945 44.7959 26.7711 44.8657 26.8624C44.9355 26.9537 44.9866 27.0579 45.0161 27.1689C45.5584 29.1261 45.6809 31.1758 45.3755 33.1836C45.0701 35.1915 44.3439 37.1121 43.2442 38.8196C43.1645 38.9404 43.056 39.0395 42.9285 39.1081C42.8009 39.1767 42.6584 39.2125 42.5136 39.2124Z" fill="#858585"/>
<path d="M28 38.2333C27.8351 38.2335 27.6734 38.1871 27.5336 38.0994C27.2956 37.9489 27.0623 37.7911 26.8336 37.626C24.9231 36.2358 23.3893 34.3911 22.3711 32.2588C21.3787 30.1975 20.8674 27.9377 20.8758 25.6499C20.8758 25.2754 20.8924 24.9053 20.9186 24.5378C20.9351 24.3057 21.0431 24.0897 21.2189 23.9373C21.3946 23.7848 21.6237 23.7084 21.8558 23.7249C22.0878 23.7414 22.3039 23.8494 22.4563 24.0251C22.6087 24.2009 22.6851 24.43 22.6686 24.662C22.645 24.9884 22.6301 25.3174 22.6301 25.6499C22.6225 27.6733 23.0739 29.6721 23.9505 31.4958C24.8402 33.3648 26.1821 34.9822 27.8548 36.2015L28 36.3083L28.1505 36.2015C29.8209 34.9812 31.1609 33.3639 32.0495 31.4958C32.5919 30.3684 32.9725 29.1701 33.18 27.9363C33.1992 27.823 33.2405 27.7146 33.3016 27.6173C33.3627 27.5199 33.4424 27.4356 33.536 27.369C33.6297 27.3025 33.7356 27.2551 33.8476 27.2294C33.9596 27.2038 34.0756 27.2005 34.1889 27.2197C34.3022 27.2389 34.4106 27.2802 34.5079 27.3413C34.6053 27.4024 34.6896 27.482 34.7562 27.5757C34.8227 27.6694 34.8701 27.7752 34.8958 27.8873C34.9214 27.9993 34.9247 28.1152 34.9055 28.2285C34.6698 29.6235 34.2392 30.9785 33.6263 32.2535C32.6114 34.3848 31.0813 36.2295 29.1743 37.6208C28.9409 37.7882 28.7044 37.9478 28.4646 38.0994C28.3254 38.1868 28.1644 38.2332 28 38.2333Z" fill="#858585"/>
<path d="M12.7251 28.2995C12.3996 28.2995 12.0785 28.2872 11.7626 28.2627C11.0314 28.2118 10.3076 28.0842 9.60311 27.8821C9.45545 27.8383 9.32195 27.7564 9.2161 27.6446C9.11024 27.5327 9.03578 27.3949 9.00023 27.2451C7.84086 22.3451 10.8596 16.2507 14.2879 13.0106C16.1599 11.354 18.3807 10.1399 20.7857 9.45832C23.1907 8.77671 25.7183 8.64505 28.1811 9.07308C28.405 9.12441 28.5997 9.2617 28.7232 9.45531C28.8467 9.64891 28.8892 9.88333 28.8414 10.108C28.7936 10.3326 28.6594 10.5294 28.4678 10.656C28.2762 10.7826 28.0425 10.8288 27.8171 10.7846C25.6314 10.4213 23.3924 10.5468 21.261 11.1519C19.1296 11.7571 17.1588 12.8269 15.4901 14.2846C12.502 17.1073 9.94873 22.2865 10.6032 26.3333C11.0305 26.4243 11.4635 26.486 11.8991 26.518C15.2382 26.6424 18.532 25.7143 21.315 23.865C21.9768 23.4376 22.5995 22.9527 23.1761 22.416C23.8704 21.7581 24.5066 21.0414 25.0775 20.274C25.2167 20.0883 25.424 19.9656 25.6537 19.9327C25.8835 19.8999 26.1168 19.9597 26.3025 20.099C26.4881 20.2382 26.6109 20.4455 26.6437 20.6752C26.6765 20.9049 26.6167 21.1383 26.4775 21.324C25.8467 22.1717 25.1441 22.9636 24.3775 23.6908C23.7253 24.2988 23.0208 24.8481 22.2722 25.3323C19.4286 27.1919 16.1218 28.2196 12.7251 28.2995Z" fill="#858585"/>
<path d="M43.2749 28.2995C39.8773 28.219 36.5699 27.1904 33.726 25.3297C32.9793 24.845 32.2767 24.2957 31.626 23.6882C29.7102 21.8652 28.2001 19.6589 27.1941 17.2132C26.6745 15.9618 26.3357 14.6428 26.1879 13.2958C26.1647 13.0649 26.2341 12.8343 26.381 12.6546C26.5279 12.4749 26.7401 12.3609 26.971 12.3377C27.2019 12.3145 27.4326 12.384 27.6122 12.5308C27.7919 12.6777 27.9059 12.8899 27.9291 13.1208C28.0593 14.3014 28.3565 15.4574 28.812 16.5543C29.7224 18.7687 31.0895 20.7663 32.8239 22.4168C33.4004 22.9536 34.0232 23.4385 34.685 23.8658C37.4677 25.7149 40.7612 26.6427 44.1 26.518C44.5359 26.486 44.9692 26.4243 45.3967 26.3333C46.0512 22.2865 43.498 17.1073 40.509 14.2837C38.8407 12.8256 36.8698 11.7554 34.7383 11.1502C32.6068 10.545 30.3677 10.4198 28.182 10.7837C28.0688 10.8097 27.9517 10.8128 27.8373 10.7931C27.7229 10.7733 27.6136 10.7309 27.5158 10.6685C27.4179 10.6061 27.3335 10.5248 27.2673 10.4294C27.2012 10.334 27.1547 10.2264 27.1305 10.1129C27.1064 9.99934 27.1051 9.88214 27.1267 9.76809C27.1483 9.65404 27.1923 9.54542 27.2563 9.44857C27.3203 9.35172 27.4029 9.26856 27.4993 9.20395C27.5958 9.13934 27.7041 9.09456 27.818 9.07221C30.2808 8.64386 32.8085 8.77537 35.2135 9.457C37.6186 10.1386 39.8394 11.3529 41.7112 13.0097C45.1395 16.2472 48.1582 22.3398 46.9989 27.2442C46.9633 27.3941 46.8888 27.5319 46.783 27.6437C46.6771 27.7556 46.5436 27.8375 46.396 27.8812C45.6915 28.0833 44.9677 28.2109 44.2365 28.2618C43.925 28.2872 43.6004 28.2995 43.2749 28.2995Z" fill="#858585"/>
<path d="M28 10.5833C27.8051 10.5831 27.6158 10.5179 27.4622 10.3979C27.3086 10.2779 27.1995 10.11 27.1521 9.92097C26.9627 9.16871 26.8167 8.40621 26.7146 7.63722C24.7774 7.07022 22.75 5.66234 22.75 2.70834C22.75 2.47628 22.8422 2.25372 23.0063 2.08962C23.1704 1.92553 23.3929 1.83334 23.625 1.83334C23.8571 1.83334 24.0796 1.92553 24.2437 2.08962C24.4078 2.25372 24.5 2.47628 24.5 2.70834C24.4817 3.37345 24.6761 4.02704 25.0549 4.57405C25.4337 5.12106 25.9771 5.53296 26.6061 5.74984C26.5813 4.7361 26.8747 3.74005 27.4453 2.90172C27.7185 2.55508 28.0695 2.2777 28.4699 2.09208C28.8704 1.90646 29.3089 1.81782 29.75 1.83334C30.1196 1.82607 30.4867 1.89485 30.8285 2.03541C31.1704 2.17596 31.4797 2.3853 31.7373 2.65042C31.9949 2.91553 32.1952 3.23077 32.3258 3.57655C32.4564 3.92233 32.5146 4.29127 32.4966 4.66047C32.4955 5.50558 32.1649 6.31697 31.5752 6.92234C31.175 7.30923 30.6935 7.60209 30.1659 7.77962C29.6383 7.95716 29.0777 8.01493 28.525 7.94872C28.6055 8.43609 28.7131 8.95409 28.8488 9.49572C28.9051 9.72082 28.8698 9.9591 28.7505 10.1581C28.6312 10.3572 28.4377 10.5007 28.2126 10.5571C28.1431 10.5747 28.0717 10.5836 28 10.5833ZM28.35 6.17597C28.6423 6.20834 28.8391 6.20834 28.875 6.20834C29.139 6.22401 29.4035 6.18681 29.6529 6.09891C29.9023 6.01101 30.1317 5.87419 30.3275 5.69647C30.5966 5.41874 30.7469 5.04715 30.7466 4.66047C30.7589 4.52275 30.7421 4.384 30.6974 4.25316C30.6528 4.12232 30.5812 4.00229 30.4873 3.90081C30.3934 3.79933 30.2793 3.71865 30.1523 3.66397C30.0253 3.60929 29.8882 3.58182 29.75 3.58334C29.575 3.56603 29.3985 3.5932 29.2368 3.66234C29.0751 3.73149 28.9335 3.84035 28.8251 3.97884C28.4371 4.64206 28.2707 5.4117 28.35 6.17597Z" fill="#858585"/>
</svg>
